<svg width="152" height="38" viewBox="0 0 152 38" fill="none" xmlns="http://www.w3.org/2000/svg">
<path fill-rule="evenodd" clip-rule="evenodd" d="M17.0544 5.60836L10.8707 11.2167L5.97101 6.78354C3.27595 4.34547 0.988945 2.35035 0.888499 2.35035C0.788422 2.35035 0.765895 3.03202 0.839014 3.86502C0.912133 4.69802 0.791007 5.57723 0.569803 5.81896C0.259232 6.15845 1.3767 7.39255 5.48909 11.2515L10.8102 16.2449L17.1342 10.5361L23.4583 4.82692L23.3482 2.41363L23.2382 0L17.0544 5.60836ZM86.6841 5.83637L85.6478 6.64426L85.54 18.1406C85.4805 24.4637 85.5289 29.9891 85.6471 30.419C85.7656 30.8492 86.2952 31.5647 86.8244 32.0093C87.6449 32.6987 88.1553 32.8178 90.2894 32.8178C92.5916 32.8178 92.8833 32.7355 93.9284 31.7876L95.0647 30.7574V18.9233V7.08922L93.9284 6.05901C92.8803 5.1085 92.5956 5.02881 90.2562 5.02881C88.108 5.02881 87.5615 5.15236 86.6841 5.83637ZM144.464 5.68704C143.024 6.71457 142.584 8.07523 142.784 10.8926C142.947 13.1928 143.204 13.846 145.975 19.0047C148.962 24.5638 148.989 24.6388 148.985 27.2169C148.981 29.6971 148.935 29.8377 148.014 30.2181C147.161 30.5706 146.966 30.5261 146.352 29.8391C145.813 29.2351 145.657 28.5109 145.657 26.6045V24.148L144.272 24.5849L142.887 25.0219V27.9434C142.887 30.82 142.906 30.8803 144.094 31.8415C145.145 32.6923 145.587 32.8178 147.538 32.8178C149.534 32.8178 149.896 32.709 150.888 31.8097L152 30.8013L151.875 27.1392L151.75 23.477L148.848 18.2909C146.375 13.8724 145.917 12.7923 145.758 10.9921C145.602 9.21893 145.691 8.74652 146.31 8.05413C146.965 7.32057 147.155 7.27336 148.014 7.62859C148.903 7.99554 148.981 8.19241 148.981 10.0663C148.981 11.9449 149.039 12.0899 149.719 11.9148C150.125 11.8103 150.79 11.6396 151.196 11.5351C151.838 11.3701 151.935 11.0584 151.935 9.1657C151.935 7.20305 151.828 6.88867 150.856 6.00745C149.905 5.14532 149.515 5.02881 147.582 5.02881C145.959 5.02881 145.147 5.20023 144.464 5.68704ZM47.4265 18.9233V32.483H51.6516C53.9755 32.483 55.9501 32.3699 56.0394 32.2319C56.1292 32.094 56.3182 31.491 56.4601 30.8927L56.7174 29.8046H53.549H50.3808V24.7992V19.7938L52.4688 19.6934C54.508 19.5953 54.5675 19.5642 55.0235 18.3659C55.2802 17.6909 55.3932 17.0508 55.2746 16.9429C55.1557 16.8351 54.0061 16.7471 52.7195 16.7471H50.3808V12.3946V8.04208H53.1143H55.8478L56.2533 6.98777C56.4763 6.40788 56.6587 5.80523 56.6587 5.64854C56.6587 5.49185 54.5815 5.36362 52.0426 5.36362H47.4265V18.9233ZM65.1524 5.48415C65.1524 5.55011 66.0663 8.49575 67.1834 12.0296C68.3005 15.5635 69.2145 18.6659 69.2145 18.9233C69.2145 19.1808 68.3005 22.2831 67.1834 25.817C66.0663 29.3509 65.1524 32.2966 65.1524 32.3625C65.1524 32.4288 65.8101 32.483 66.614 32.483H68.0753L68.8515 30.0557C69.278 28.7205 69.9162 26.8161 70.2692 25.823L70.9114 24.0178L72.1197 27.8319C72.7841 29.9298 73.3941 31.8345 73.4754 32.0645C73.5618 32.3096 74.2505 32.483 75.1364 32.483C76.406 32.483 76.6187 32.3886 76.4551 31.8971C75.3809 28.6689 72.5381 19.2535 72.5381 18.9233C72.5381 18.5919 75.3986 9.11983 76.4622 5.92877C76.6387 5.39944 76.4648 5.3355 75.0969 5.42656L73.5293 5.53102L72.2253 9.69335L70.921 13.8553L70.2744 12.037C69.9184 11.0366 69.278 9.12585 68.8515 7.79097L68.0753 5.36362H66.614C65.8101 5.36362 65.1524 5.41786 65.1524 5.48415ZM104.666 18.9233V32.483H108.387C112.008 32.483 112.138 32.4566 113.188 31.5044L114.268 30.5258V18.9233V7.3209L113.188 6.34226C112.138 5.39007 112.008 5.36362 108.387 5.36362H104.666V18.9233ZM123.869 17.5342C123.869 25.578 124.008 30.0657 124.278 30.7692C124.824 32.1891 126.289 32.8178 129.049 32.8178C131.057 32.8178 131.433 32.708 132.391 31.8392L133.471 30.8606V18.1121V5.36362H131.998H130.526L130.428 17.6598L130.332 29.9559L129.277 30.2921C128.37 30.5813 128.126 30.5187 127.523 29.8444C126.866 29.1082 126.823 28.3438 126.823 17.2121V5.36362H125.346H123.869V17.5342ZM26.5618 7.70058C26.1555 7.8576 23.123 10.4487 19.8223 13.4583L13.8213 18.9307L20.0959 24.612L26.3705 30.2934L29.2358 30.4123L32.1011 30.5311L25.732 24.7249L19.3632 18.9186L25.7309 13.1456L32.0985 7.37246L29.6992 7.39356C28.3798 7.40528 26.968 7.54355 26.5618 7.70058ZM91.5302 7.89845C92.0328 8.35445 92.1104 9.8256 92.1104 18.9233C92.1104 28.0211 92.0328 29.4922 91.5302 29.9482C90.8555 30.5596 90.1336 30.6138 89.1317 30.1277C88.4481 29.7959 88.4175 29.3154 88.4175 18.9284C88.4175 8.94539 88.4692 8.04811 89.0637 7.73406C89.9999 7.23988 90.8673 7.29747 91.5302 7.89845ZM110.87 8.44385C111.504 9.01804 111.504 28.8286 110.87 29.4028C110.626 29.6238 109.796 29.8046 109.024 29.8046H107.62V18.9233V8.04208H109.024C109.796 8.04208 110.626 8.22287 110.87 8.44385ZM0.0768043 12.0812C0.743 12.7793 0.896254 13.3491 0.896254 15.1263C0.896254 16.8877 1.03991 17.4308 1.63483 17.9189C2.55694 18.6756 2.561 19.0338 1.65662 19.9067C1.14109 20.4042 0.90881 21.1796 0.829782 22.6661C0.769219 23.8035 0.809472 24.8156 0.91915 24.915C1.0292 25.0145 2.64742 23.7044 4.51528 22.0039L7.91199 18.9116L3.58467 15.067C1.20461 12.9527 -0.373727 11.6091 0.0768043 12.0812ZM6.97806 25.201C2.19504 29.6479 -0.150677 31.9738 0.466403 31.6567C0.840492 31.4646 0.943154 31.6758 0.890715 32.5292C0.676897 36.0059 0.432798 36.0735 5.88201 31.1435L10.8681 26.6323L17.1453 32.316L23.4228 38V35.4889V32.9779L17.2332 27.3735C13.8291 24.2913 10.9593 21.7692 10.8563 21.7692C10.7533 21.7692 9.00803 23.3137 6.97806 25.201Z" fill="white"/>
</svg>
