<svg width="21" height="21" viewBox="0 0 21 21" fill="none" xmlns="http://www.w3.org/2000/svg">
<path d="M9.06822 2.62646C7.79388 2.62646 6.54817 3.00435 5.4886 3.71233C4.42903 4.42031 3.60319 5.42659 3.11553 6.60392C2.62786 7.78125 2.50026 9.07676 2.74887 10.3266C2.99748 11.5764 3.61113 12.7245 4.51222 13.6256C5.41331 14.5267 6.56137 15.1403 7.81122 15.3889C9.06107 15.6376 10.3566 15.51 11.5339 15.0223C12.7112 14.5346 13.7175 13.7088 14.4255 12.6492C15.1335 11.5897 15.5114 10.3439 15.5114 9.06961C15.5112 7.36081 14.8324 5.72204 13.6241 4.51374C12.4158 3.30544 10.777 2.62657 9.06822 2.62646V2.62646Z" stroke="white" stroke-opacity="0.7" stroke-width="1.00189" stroke-miterlimit="10"/>
<path d="M13.8746 13.8767L18.3763 18.3784" stroke="white" stroke-opacity="0.7" stroke-width="1.00189" stroke-miterlimit="10" stroke-linecap="round"/>
</svg>
