<svg width="267" height="29" viewBox="0 0 267 29" fill="none" xmlns="http://www.w3.org/2000/svg">
<path fill-rule="evenodd" clip-rule="evenodd" d="M17.2663 0.481223C16.4318 1.01708 15.6534 2.44556 15.6534 3.44094C15.6534 4.30569 16.3688 5.65347 17.1153 6.19514C17.4585 6.44449 18.2916 6.64827 18.9663 6.64827C19.9874 6.64827 20.3522 6.4831 21.1455 5.66131C21.9388 4.83952 22.0982 4.46157 22.0982 3.40378C22.0982 1.95266 21.5801 1.03015 20.4139 0.405462C19.3578 -0.160298 18.2224 -0.133014 17.2663 0.481223ZM40.3997 0.537828C39.2649 1.25483 38.9107 1.95092 38.9107 3.46503C38.9107 4.45316 39.085 4.85491 39.8634 5.66131C40.6567 6.4831 41.0215 6.64827 42.0426 6.64827C43.4433 6.64827 44.3338 6.11154 44.9368 4.90338C45.4676 3.84008 45.4659 3.05835 44.9307 1.88967C44.1029 0.0829577 42.077 -0.521702 40.3997 0.537828ZM136.983 15.2249V27.575L138.875 27.4894L140.766 27.4034L140.906 21.4527C141.004 17.3063 141.158 15.2993 141.415 14.8331C142.3 13.2258 144.809 12.5581 146.52 13.4748C148.119 14.3317 148.315 15.175 148.424 21.6831L148.522 27.5738L150.388 27.4888L152.255 27.4034L152.334 22.0332C152.377 19.0796 152.288 15.8293 152.136 14.8104C151.604 11.2368 149.62 9.4283 146.23 9.42656C144.196 9.4254 142.953 9.95575 141.68 11.3665L140.906 12.2252V7.54989V2.8746H138.945H136.983V15.2249ZM219.925 15.2116V27.5486H221.887H223.848V15.2116V2.8746H221.887H219.925V15.2116ZM229.172 15.2116V27.5486H231.133H233.095V15.2116V2.8746H231.133H229.172V15.2116ZM77.019 15.6348V27.5486H78.9804H80.9419L80.9422 19.0578L80.9425 10.5671L84.5389 16.157L88.1354 21.7473L91.754 16.157L95.3726 10.5671L95.4469 19.0578L95.5211 27.5486H97.4815H99.4418L99.3686 15.7196L99.2955 3.89059H97.2111H95.1266L91.747 9.33222C89.8881 12.3253 88.2735 14.7419 88.1592 14.7024C88.0446 14.6633 86.4533 12.2144 84.6233 9.26081L81.2955 3.89059L79.1572 3.80583L77.019 3.72106V15.6348ZM165.565 4.0903C165.565 4.27986 167.299 9.63963 169.418 16.0012L173.27 27.5672L175.056 27.4853L176.841 27.4034L179.531 19.2184C181.01 14.7164 182.287 11.0971 182.369 11.1755C182.45 11.2539 183.719 14.937 185.188 19.3606L187.859 27.4034L189.671 27.4818L191.484 27.5602L195.339 15.8705C197.46 9.44108 199.194 4.08276 199.192 3.96316C199.191 3.84356 198.311 3.74545 197.238 3.74545C195.657 3.74545 195.242 3.84182 195.049 4.25344C194.918 4.53298 193.692 8.38619 192.323 12.8168C190.955 17.2471 189.756 20.8721 189.66 20.8721C189.563 20.8721 188.286 17.0514 186.822 12.3813L184.161 3.89059L182.446 3.80467L180.73 3.71874L177.932 12.5131C176.393 17.3501 175.065 21.1116 174.982 20.8721C174.898 20.6326 173.739 16.9097 172.405 12.5991C171.071 8.28837 169.865 4.53298 169.724 4.25344C169.517 3.84356 169.091 3.74545 167.516 3.74545C166.196 3.74545 165.565 3.85692 165.565 4.0903ZM124.374 7.21142V9.51597L123.323 9.60625L122.273 9.69623L122.189 11.3654L122.104 13.0345H123.239H124.374V18.4883C124.374 23.5688 124.417 24.0304 125.005 25.2307C125.886 27.0316 127.104 27.7024 129.418 27.6612C130.42 27.6432 131.586 27.4833 132.01 27.3056C132.731 27.0029 132.78 26.8705 132.78 25.2234C132.78 23.574 132.746 23.4829 132.238 23.7648C131.305 24.2823 129.478 24.1276 128.851 23.4777C128.32 22.9276 128.288 22.5801 128.36 18.0349L128.437 13.1796L130.763 13.0951L133.088 13.0107L133.004 11.3535L132.92 9.69623L130.609 9.61205L128.297 9.52758V7.21722V4.90658H126.336H124.374V7.21142ZM258.594 7.22883V9.55109H257.473H256.352V11.2754V12.9994L257.403 13.0896L258.454 13.1796L258.594 18.9853C258.749 25.4057 258.915 26.0635 260.66 27.1309C261.727 27.7843 264.761 27.8763 266.089 27.2958C266.969 26.9111 267 26.8403 267 25.1982V23.4992L266.281 23.7822C265.105 24.2455 263.496 24.1247 262.98 23.5343C262.587 23.0838 262.517 22.2498 262.517 18.0189V13.0345H264.758H267V11.2928V9.55109H264.758H262.517V7.22883V4.90658H260.555H258.594V7.22883ZM11.5178 6.45233C10.5408 7.01461 9.97277 8.05556 9.97277 9.28432C9.97277 13.1837 15.0426 13.9535 16.2276 10.2341C17.099 7.49851 14.0103 5.01833 11.5178 6.45233ZM22.4905 7.05467C21.6916 7.88226 21.5378 8.25063 21.5378 9.33774C21.5378 12.3645 24.9034 13.8229 26.9637 11.6887C29.0238 9.55429 27.6161 6.06771 24.6943 6.06771C23.645 6.06771 23.2894 6.22707 22.4905 7.05467ZM34.3629 6.6384C32.8201 7.89561 32.671 10.2652 34.0452 11.6887C36.1055 13.8229 39.4711 12.3645 39.4711 9.33774C39.4711 8.25063 39.3173 7.88226 38.5184 7.05467C37.7195 6.22707 37.3639 6.06771 36.3146 6.06771C35.495 6.06771 34.8219 6.26452 34.3629 6.6384ZM46.0148 6.62679C43.6314 8.13248 44.5426 12.1654 47.3735 12.6411C49.2375 12.9547 50.9877 11.4217 51.0423 9.4283C51.1171 6.69791 48.3464 5.1539 46.0148 6.62679ZM243.273 9.66053C239.254 11.0249 237.105 14.5021 237.356 19.2369C237.551 22.9041 239.059 25.3822 242.01 26.8838C243.404 27.5924 243.918 27.6923 246.124 27.6815C248.286 27.6711 248.846 27.5608 250.047 26.9103C250.818 26.4928 251.803 25.7645 252.236 25.2916L253.023 24.4321L251.916 23.523C251.306 23.0228 250.722 22.6138 250.619 22.6138C250.515 22.6138 250.017 22.9406 249.511 23.3401C247.789 24.7012 244.833 24.7996 243.204 23.5497C242.28 22.8408 241.221 21.2332 241.221 20.5389C241.221 20.0314 241.576 20.0013 247.526 20.0013H253.83L253.826 18.9127C253.81 14.993 251.684 11.1659 248.836 9.92962C247.458 9.33135 244.643 9.19521 243.273 9.66053ZM107.56 9.96416C106.866 10.163 106.026 10.4762 105.693 10.6606C105.102 10.9886 105.098 11.0254 105.538 12.4504C105.785 13.2507 106.121 13.9039 106.284 13.9021C106.447 13.9004 107.2 13.7045 107.956 13.4667C109.692 12.9213 112.06 12.912 113.293 13.4455C114.374 13.9132 114.981 14.7721 115.233 16.1878C115.405 17.1565 115.399 17.1629 114.496 16.9942C109.052 15.9779 105.427 16.9649 104.183 19.8027C102.742 23.0907 104.215 26.4505 107.536 27.4505C110.041 28.2049 113.337 27.492 114.586 25.9262C114.953 25.4649 114.999 25.5062 115.127 26.4127L115.267 27.4034L117.159 27.4894L119.05 27.575V21.5186C119.05 17.0079 118.944 15.0917 118.634 14.0107C118.087 12.1027 116.587 10.5488 114.745 9.98216C113.073 9.46749 109.328 9.45849 107.56 9.96416ZM204.374 9.7331C202.526 10.2126 201.151 10.8077 201.151 11.1276C201.151 11.6214 201.736 13.4092 201.995 13.7097C202.109 13.8415 202.871 13.7433 203.689 13.492C205.536 12.9239 207.873 12.9039 209.124 13.4455C210.208 13.9149 210.868 14.8174 211.134 16.1942L211.318 17.1463L209.947 16.9045C209.193 16.7719 207.559 16.663 206.315 16.663C204.353 16.663 203.836 16.7785 202.413 17.5339C201.133 18.214 200.631 18.6851 200.122 19.684C198.002 23.844 201.433 28.2743 206.369 27.7506C207.867 27.5916 209.754 26.7555 210.381 25.9732C210.959 25.2519 211.239 25.4342 211.239 26.5326V27.5486H213.078H214.919L214.83 20.7995L214.741 14.0505L213.963 12.6795C213.458 11.7895 212.722 11.0269 211.865 10.507C210.689 9.7929 210.241 9.69943 207.74 9.64689C206.197 9.61438 204.682 9.65327 204.374 9.7331ZM17.755 12.1503C15.9009 12.9448 15.1622 15.4049 16.2696 17.0984C17.5115 18.998 19.8053 19.1301 21.3276 17.3896C23.4967 14.91 20.742 10.8704 17.755 12.1503ZM40.6802 12.2844C38.8594 13.1329 38.329 15.8438 39.6813 17.3896C41.2036 19.1301 43.4974 18.998 44.7393 17.0984C46.5225 14.3709 43.6112 10.9183 40.6802 12.2844ZM5.86773 13.4957C4.16658 14.9785 5.16216 17.7951 7.38729 17.7951C9.56843 17.7951 10.5245 15.2241 8.95001 13.5927C7.93426 12.5404 6.99752 12.5108 5.86773 13.4957ZM29.6638 12.95C27.5752 13.7457 27.5855 16.8851 29.6792 17.641C31.7545 18.3905 33.6114 16.2099 32.6085 14.2008C32.0232 13.0281 30.811 12.5131 29.6638 12.95ZM52.0589 13.5927C50.4844 15.2241 51.4405 17.7951 53.6216 17.7951C55.8467 17.7951 56.8423 14.9785 55.1412 13.4957C54.0114 12.5108 53.0746 12.5404 52.0589 13.5927ZM248.125 13.6391C248.848 14.3288 249.889 16.3141 249.901 17.0259C249.906 17.301 248.848 17.3887 245.529 17.3887H241.151L241.326 16.4787C241.59 15.1146 242.514 13.7448 243.534 13.2052C244.856 12.5062 247.167 12.7245 248.125 13.6391ZM11.5501 19.5281C9.89011 21.0074 11.0062 23.7749 13.2624 23.7749C13.9683 23.7749 14.3832 23.5523 14.928 22.8817C15.8462 21.7514 15.8462 20.8637 14.928 19.7333C14.0094 18.6021 12.6799 18.5214 11.5501 19.5281ZM23.0663 19.5528C21.5835 21.0886 22.6194 23.7749 24.6946 23.7749C26.2374 23.7749 27.3964 22.2518 27.0237 20.7142C26.5793 18.879 24.3483 18.2244 23.0663 19.5528ZM34.7639 19.4288C33.6257 20.5272 33.6333 22.0953 34.7824 23.2042C36.2112 24.5834 38.6305 23.3909 38.6305 21.3075C38.6305 19.2082 36.2106 18.0326 34.7639 19.4288ZM46.0809 19.7333C45.6819 20.2245 45.3555 20.9328 45.3555 21.3075C45.3555 22.437 46.652 23.7749 47.7465 23.7749C49.1397 23.7749 50.2311 22.6913 50.2311 21.3075C50.2311 19.0024 47.5122 17.971 46.0809 19.7333ZM113.993 19.4448C115.304 19.7359 115.407 19.8219 115.407 20.6152C115.407 23.096 113.572 24.7813 110.87 24.7813C108.263 24.7813 107.103 23.3857 107.691 20.9583C108.05 19.4753 110.972 18.7736 113.993 19.4448ZM209.824 19.4448C211.211 19.7531 211.239 19.7795 211.237 20.8236C211.235 23.5807 208.349 25.4812 205.409 24.6611C204.078 24.2899 203.393 23.4457 203.393 22.1784C203.393 19.7072 206.006 18.5966 209.824 19.4448ZM0.425525 20.2419C-0.529704 21.3351 0.221814 22.9041 1.70075 22.9041C2.56547 22.9041 3.11412 22.2843 3.11412 21.3075C3.11412 20.9093 2.95692 20.3873 2.7647 20.1473C2.28358 19.547 0.986781 19.5995 0.425525 20.2419ZM58.2442 20.1473C58.052 20.3873 57.8948 20.9093 57.8948 21.3075C57.8948 22.3009 58.4471 22.9041 59.3566 22.9041C60.2334 22.9041 61.0471 22.1113 61.0471 21.257C61.0471 19.9766 59.0232 19.1751 58.2442 20.1473ZM6.46905 25.9686C5.27621 26.8339 5.9672 29 7.43605 29C8.81748 29 9.44906 26.7982 8.30553 25.9686C7.96312 25.7201 7.54981 25.5166 7.38729 25.5166C7.22477 25.5166 6.81146 25.7201 6.46905 25.9686ZM29.8039 25.8635C28.6699 26.5297 28.5085 27.5129 29.3836 28.4194C30.3321 29.402 31.6376 29.0113 32.0347 27.6261C32.1703 27.1532 32.0296 26.7799 31.5154 26.2473C30.7239 25.4272 30.5955 25.3985 29.8039 25.8635ZM52.7034 25.9686C51.5105 26.8339 52.2015 29 53.6704 29C55.0518 29 55.6834 26.7982 54.5399 25.9686C54.1974 25.7201 53.7841 25.5166 53.6216 25.5166C53.4591 25.5166 53.0458 25.7201 52.7034 25.9686Z" fill="white"/>
</svg>
