<svg width="106" height="44" viewBox="0 0 106 44" fill="none" xmlns="http://www.w3.org/2000/svg">
<path fill-rule="evenodd" clip-rule="evenodd" d="M0.797213 0.950839C0.0286116 1.7316 -0.102456 2.1618 0.0634619 3.35583C0.174453 4.15545 0.870323 10.7817 1.60976 18.0806C2.49768 26.8482 3.15605 31.7844 3.55039 32.6283C4.31899 34.2733 5.09782 34.8397 13.5104 39.8694C22.7204 45.3763 21.7328 45.3759 30.9397 39.874C39.3925 34.8232 40.3346 34.1305 41.0202 32.4636C41.3153 31.7463 42.1407 25.3579 42.8661 18.1802C43.5878 11.0383 44.2772 4.46136 44.398 3.56478C44.5859 2.17065 44.4799 1.79432 43.6658 0.967385L42.7135 0H22.2234H1.73325L0.797213 0.950839ZM16.5412 6.54158C17.2223 7.23345 17.2989 7.82412 17.2989 12.3936V17.476L23.1033 11.624C29.3203 5.35563 29.8677 5.03664 31.5212 6.71667C33.063 8.28242 32.7493 9.03393 28.8839 13.0408L25.3167 16.7388L29.0991 22.3183C31.1795 25.3871 33.0364 28.2877 33.2251 28.7637C33.9641 30.6262 32.1739 32.5798 30.2071 32.0576C29.6976 31.9222 27.9733 29.71 25.5603 26.0952L21.7233 20.3478L19.5111 22.5715L17.2989 24.7953V27.7617C17.2989 30.508 17.225 30.7874 16.3007 31.5254C15.0521 32.5232 14.6211 32.5232 13.3725 31.5254L12.3743 30.7281V19.0476V7.36698L13.3725 6.56968C14.6275 5.5665 15.5734 5.55842 16.5412 6.54158ZM46.3409 6.02865C46.2019 6.16948 46.0883 6.60238 46.0883 6.99065C46.0883 7.66828 47.1959 7.69598 74.3095 7.69598C102.026 7.69598 102.544 7.70984 103.288 8.46558C104.006 9.19477 104.046 9.74812 104.046 19.0476C104.046 28.347 104.006 28.9003 103.288 29.6295C102.544 30.386 102.026 30.3991 73.173 30.3991H43.8154V31.3611V32.3231H73.192C105.432 32.3231 104.15 32.4147 105.365 30.027C106.212 28.3647 106.212 9.73042 105.365 8.06808C104.153 5.68695 105.294 5.77199 74.5807 5.77199C59.1878 5.77199 46.4796 5.88743 46.3409 6.02865ZM49.8764 13.0601C49.8764 13.508 50.1233 13.8528 50.4446 13.8528C50.9253 13.8528 51.0128 14.7721 51.0128 19.8172C51.0128 25.4741 51.051 25.7815 51.7514 25.7815C52.3852 25.7815 52.5064 25.4668 52.6038 23.5689C52.7015 21.6657 52.8212 21.3564 53.4614 21.3564C53.9698 21.3564 54.5728 22.0263 55.3664 23.4727C56.3555 25.2759 56.7082 25.6068 57.7476 25.7096C58.7446 25.8081 58.9677 25.6934 58.9677 25.0812C58.9677 24.6691 58.6696 24.2477 58.3048 24.1446C57.94 24.0415 57.2358 23.158 56.74 22.1814L55.838 20.4055L57.415 18.2837L58.9924 16.1616H57.9166C57.0722 16.1616 56.5824 16.534 55.6392 17.8932C54.9039 18.9529 54.1463 19.6248 53.6864 19.6248C52.9992 19.6248 52.9261 19.3208 52.8265 16.0654L52.7174 12.506L51.2969 12.3867C50.0771 12.2839 49.8764 12.379 49.8764 13.0601ZM59.7254 13.0601C59.7254 13.508 59.9723 13.8528 60.2936 13.8528C60.7743 13.8528 60.8618 14.7721 60.8618 19.8172V25.7815H61.8088C62.7407 25.7815 62.7558 25.7315 62.7558 22.6858C62.7558 19.9118 62.8524 19.4916 63.6858 18.6454C64.6927 17.6223 66.6617 17.3614 67.1845 18.1818C67.353 18.4465 67.5762 20.2212 67.6803 22.1259L67.8697 25.5891L69.2903 25.7084C70.51 25.8112 70.7108 25.7161 70.7108 25.035C70.7108 24.5991 70.4725 24.2423 70.1816 24.2423C69.7804 24.2423 69.6198 23.4524 69.5187 20.9819C69.4054 18.2179 69.255 17.5899 68.5308 16.8542C67.3439 15.649 65.0268 15.6679 63.7426 16.8931L62.7926 17.7997L62.6797 15.153L62.5664 12.506L61.1459 12.3867C59.9261 12.2839 59.7254 12.379 59.7254 13.0601ZM81.6962 13.0601C81.6962 13.5018 81.9432 13.8528 82.2546 13.8528C82.7175 13.8528 82.8308 14.8556 82.9175 19.721L83.0221 25.5891L84.4426 25.7084C85.6624 25.8112 85.8631 25.7161 85.8631 25.035C85.8631 24.5933 85.6161 24.2423 85.3048 24.2423C84.8419 24.2423 84.7286 23.2396 84.6418 18.3742L84.5373 12.506L83.1168 12.3867C81.897 12.2839 81.6962 12.379 81.6962 13.0601ZM94.9545 13.2756C94.9545 13.9809 95.1564 14.2376 95.7121 14.2376C96.2678 14.2376 96.4697 13.9809 96.4697 13.2756C96.4697 12.5702 96.2678 12.3136 95.7121 12.3136C95.1564 12.3136 94.9545 12.5702 94.9545 13.2756ZM88.136 14.8148C88.136 15.9049 87.9916 16.1616 87.3784 16.1616C86.8734 16.1616 86.6207 16.4182 86.6207 16.9312C86.6207 17.4441 86.8734 17.7008 87.3784 17.7008C88.0731 17.7008 88.136 17.9574 88.136 20.7965C88.136 23.5705 88.2326 23.9907 89.0659 24.8369C90.2603 26.0505 92.3029 26.161 92.3029 25.0119C92.3029 24.5063 92.0502 24.2423 91.5668 24.2423C90.335 24.2423 89.6512 22.7693 89.6512 20.1161V17.7008H90.7876C91.6714 17.7008 91.924 17.5299 91.924 16.9312C91.924 16.3324 91.6714 16.1616 90.7876 16.1616C89.7414 16.1616 89.6512 16.0546 89.6512 14.8148C89.6512 13.7246 89.5069 13.468 88.8936 13.468C88.2803 13.468 88.136 13.7246 88.136 14.8148ZM74.239 16.202C73.0556 16.5487 72.323 17.6958 72.792 18.4669C73.1636 19.0776 73.8939 18.9237 74.6004 18.0856C75.6963 16.7853 77.7089 17.3541 77.9767 19.0395C78.0801 19.6921 77.8131 19.8372 76.1046 20.0561C72.8708 20.4702 71.3472 22.0351 72.0347 24.2366C72.5965 26.0344 75.8743 26.6381 77.2865 25.2036C78.0051 24.4736 78.287 24.474 78.287 25.2043C78.287 25.6076 78.687 25.7815 79.6128 25.7815C80.686 25.7815 80.9386 25.6349 80.9386 25.0119C80.9386 24.5844 80.686 24.2423 80.3704 24.2423C79.9132 24.2423 79.8022 23.6463 79.8022 21.1855C79.8022 18.5527 79.684 17.9971 78.9499 17.1801C77.9729 16.0931 76.0043 15.6844 74.239 16.202ZM93.8181 16.9312C93.8181 17.3544 94.0677 17.7008 94.373 17.7008C94.8174 17.7008 94.9496 18.4873 95.036 21.645L95.1439 25.5891L96.5645 25.7084C97.7842 25.8112 97.985 25.7161 97.985 25.035C97.985 24.5871 97.738 24.2423 97.4168 24.2423C96.9523 24.2423 96.8486 23.5882 96.8486 20.6637C96.8486 16.7557 96.5887 16.1616 94.8788 16.1616C94.0708 16.1616 93.8181 16.3447 93.8181 16.9312ZM78.287 21.568C78.287 21.79 78.0377 22.4615 77.7328 23.0602C76.9047 24.6868 75.408 25.1108 74.3364 24.0226C73.5568 23.2303 73.5856 22.8613 74.4989 21.9335C75.3107 21.1089 78.287 20.8219 78.287 21.568Z" fill="white"/>
</svg>
