<svg width="223" height="46" viewBox="0 0 223 46" fill="none" xmlns="http://www.w3.org/2000/svg">
<path fill-rule="evenodd" clip-rule="evenodd" d="M5.15362 0.461828C-1.23721 2.76166 -1.83656 11.8443 4.21088 14.7398C7.23644 16.1878 10.8263 15.5858 13.1509 13.24C14.7961 11.5802 15.0526 10.9671 15.2238 8.28284C15.3761 5.88848 15.1887 4.85025 14.3659 3.52897C12.5024 0.535232 8.57961 -0.770734 5.15362 0.461828ZM48.3384 22.1183V37.1688H51.2174H54.0964V22.1183V7.0677H51.2174H48.3384V22.1183ZM112.031 15.7675C110.931 16.1567 109.73 16.8896 109.362 17.3971C108.572 18.4882 107.489 17.9944 107.489 16.5422C107.489 15.664 107.113 15.5171 104.871 15.5171H102.254V26.343V37.1688H105.133H108.012V30.375C108.012 24.3014 108.127 23.4332 109.097 22.1896C110.482 20.4125 112.847 20.3074 114.002 21.972C114.64 22.8909 114.817 24.6658 114.817 30.1574V37.1688H117.696H120.575V30.375C120.575 24.3014 120.69 23.4332 121.66 22.1896C122.448 21.1777 123.227 20.798 124.509 20.798C127.455 20.798 127.903 22.0348 127.903 30.1574V37.1688H130.782H133.661L133.65 29.3795C133.636 20.101 132.972 17.8941 129.727 16.341C127.287 15.1723 123.701 15.467 121.639 17.0048L120.195 18.0821L118.422 16.8564C116.028 15.2019 114.411 14.9262 112.031 15.7675ZM33.1693 16.078C32.4553 16.3811 31.4691 16.9963 30.9776 17.4452C30.0008 18.3366 28.9707 18.0092 28.9707 16.8062C28.9707 16.2449 28.2834 16.0452 26.3534 16.0452H23.7362V30.8317V45.6183H26.6152H29.4941V40.3374C29.4941 37.4329 29.6213 35.0565 29.7768 35.0565C29.9328 35.0565 30.7776 35.5914 31.6544 36.2447C34.0398 38.0217 38.6535 37.8992 41.1305 35.9933C43.8739 33.882 44.9198 31.2885 44.9156 26.607C44.9114 22.0137 43.664 19.0078 40.9551 17.0618C39.0895 15.7215 35.1731 15.2267 33.1693 16.078ZM63.3531 16.2496C60.8353 17.1965 59.5424 18.3704 58.8682 20.3212L58.3385 21.8542H60.9767C62.8223 21.8542 64.0148 21.5368 64.946 20.798C65.6783 20.2171 66.8995 19.7419 67.6601 19.7419C69.4283 19.7419 71.3703 21.1059 71.3703 22.3475C71.3703 23.1887 70.7877 23.3376 66.7257 23.5335C61.5613 23.7823 59.9523 24.4978 58.261 27.2957C57.023 29.3441 56.9613 31.4058 58.0673 33.7574C59.144 36.0466 60.8819 37.1567 63.9347 37.5052C65.9322 37.7334 66.876 37.5269 68.9305 36.4115C71.4054 35.0676 71.4693 35.0607 71.7393 36.1026C71.9639 36.9676 72.4492 37.1688 74.3105 37.1688H76.6048V29.0083C76.6048 19.9198 76.3012 18.7073 73.6034 17.0248C71.3227 15.6032 66.1196 15.2098 63.3531 16.2496ZM85.1947 16.0547C80.09 17.649 78.6227 24.2465 82.8167 26.7454C83.6175 27.2228 85.8794 27.8723 87.8428 28.1887C92.3157 28.9095 93.4673 29.5062 93.2564 30.9944C92.8764 33.6745 87.3178 34.089 85.6752 31.5595C85.0005 30.5207 84.4174 30.3037 82.3026 30.3037C79.3545 30.3037 79.0536 31.0002 80.7715 33.8424C82.0948 36.0324 84.4336 37.2195 88.0747 37.5496C91.8132 37.8881 95.2193 36.9539 97.0755 35.0813C98.9442 33.196 99.4096 31.2706 98.6301 28.6465C97.8905 26.1571 95.7915 24.6758 92.3257 24.1974C87.6539 23.5531 86.027 22.9389 86.027 21.8209C86.027 19.7197 90.3161 19.255 92.3822 21.1329C92.9643 21.662 94.1033 21.8611 95.9166 21.7518L98.5919 21.5902L97.6748 19.7598C97.1702 18.7533 95.9815 17.4774 95.0324 16.9245C93.0454 15.7675 87.6434 15.2895 85.1947 16.0547ZM142.394 16.2496C139.877 17.1965 138.584 18.3704 137.909 20.3212L137.38 21.8542H140.018C141.864 21.8542 143.056 21.5368 143.987 20.798C144.72 20.2171 145.941 19.7419 146.701 19.7419C148.47 19.7419 150.412 21.1059 150.412 22.3475C150.412 23.1887 149.829 23.3376 145.767 23.5335C140.603 23.7823 138.994 24.4978 137.302 27.2957C136.064 29.3441 136.003 31.4058 137.109 33.7574C138.185 36.0466 139.923 37.1567 142.976 37.5052C144.973 37.7334 145.917 37.5269 147.972 36.4115C150.447 35.0676 150.511 35.0607 150.781 36.1026C151.005 36.9676 151.49 37.1688 153.352 37.1688H155.646V29.0083C155.646 19.9198 155.342 18.7073 152.645 17.0248C150.364 15.6032 145.161 15.2098 142.394 16.2496ZM169.272 16.8812C168.272 17.3185 167.036 18.0588 166.523 18.5267C165.652 19.322 165.592 19.2861 165.592 17.9754C165.592 16.8321 165.35 16.5733 164.283 16.5733H162.974V31.0958V45.6183H164.283H165.592V40.0892V34.5601L167.477 35.8507C175.121 41.0841 183.472 34.0452 181.406 24.1102C180.061 17.6432 174.755 14.4821 169.272 16.8812ZM189.845 16.6245C188.102 17.1336 185.483 19.8227 185.483 21.1028C185.483 22.3337 187.789 21.9973 188.369 20.6813C188.653 20.036 189.758 19.1757 190.826 18.7696C194.69 17.2994 199.093 19.4915 199.093 22.8866V24.4947H194.365C188.77 24.4947 186.463 25.2974 184.973 27.7635C182.166 32.4081 185.707 37.6969 191.624 37.6969C192.78 37.6969 194.808 37.1197 196.256 36.3788C197.672 35.6537 198.89 35.0596 198.962 35.0586C199.033 35.0575 199.093 35.5317 199.093 36.1126C199.093 36.8874 199.442 37.1688 200.401 37.1688H201.71V29.4946C201.71 20.1717 201.234 18.6065 197.935 17.0961C195.55 16.004 192.565 15.8303 189.845 16.6245ZM205.354 20.9301C206.457 23.326 208.406 27.5523 209.686 30.3211L212.013 35.3554L210.258 39.5627C207.71 45.6716 207.72 45.6183 209.157 45.6183C210.265 45.6183 210.829 44.5726 214.643 35.4525C216.982 29.8611 219.737 23.3107 220.766 20.8957L222.638 16.5041L221.243 16.671C219.984 16.821 219.557 17.5355 216.901 23.9323C215.281 27.8338 213.71 31.109 213.41 31.2099C213.11 31.3107 211.356 28.0672 209.512 24.0014C206.425 17.1938 206.048 16.6076 204.754 16.5913L203.348 16.5733L205.354 20.9301ZM176.521 19.9167C180.169 23.2721 180.107 30.5022 176.402 33.9496C173.498 36.6502 168.579 35.3474 166.479 31.3223C165.202 28.8725 165.463 23.5256 166.962 21.464C169.386 18.1285 173.8 17.414 176.521 19.9167ZM36.5016 20.7753C40.1715 22.1832 40.4212 30.4732 36.8513 32.4002C34.9449 33.43 32.6448 33.0355 31.0242 31.4005C29.6648 30.0285 29.4941 29.4946 29.4941 26.607C29.4941 23.7194 29.6648 23.1855 31.0242 21.8136C32.6212 20.2024 34.2183 19.8998 36.5016 20.7753ZM199.093 28.4818C199.093 31.3836 197.762 33.4247 195.095 34.615C190.844 36.5119 186.53 34.6213 186.53 30.8613C186.53 27.7498 188.613 26.644 194.512 26.6229L199.093 26.607V28.4818ZM71.3703 28.7432C71.3703 31.1079 69.3378 32.9441 66.7205 32.9441C64.3498 32.9441 62.9951 31.8848 62.9951 30.0317C62.9951 28.1454 64.8612 27.1351 68.3463 27.1351C71.3672 27.1351 71.3703 27.1367 71.3703 28.7432ZM150.412 28.7432C150.412 31.1079 148.379 32.9441 145.762 32.9441C143.391 32.9441 142.036 31.8848 142.036 30.0317C142.036 28.1454 143.902 27.1351 147.388 27.1351C150.408 27.1351 150.412 27.1367 150.412 28.7432Z" fill="white"/>
</svg>
